<?xml version="1.0" encoding="UTF-8"?>
<svg xmlns="http://www.w3.org/2000/svg" xmlns:xlink="http://www.w3.org/1999/xlink" width="375pt" height="374.999991pt"
    viewBox="0 0 375 374.999991" version="1.2">
    <g id="surface1">
        <path
            style="fill:none;stroke-width:1;stroke-linecap:round;stroke-linejoin:miter;stroke:white;stroke-opacity:1;stroke-miterlimit:4;"
            d="M 0.99981 -0.0000392337 L 19.728443 -0.0000392337 "
            transform="matrix(7.419705,7.419705,-7.424621,7.424621,39.155634,38.679654)" />
        <path style=" stroke:none;fill-rule:nonzero;fill:white;fill-opacity:1;"
            d="M 57.714844 27.539062 C 57.957031 27.785156 58.175781 28.050781 58.367188 28.335938 C 58.558594 28.621094 58.71875 28.925781 58.851562 29.242188 C 58.984375 29.5625 59.082031 29.890625 59.148438 30.226562 C 59.21875 30.566406 59.25 30.90625 59.25 31.25 C 59.25 31.59375 59.21875 31.9375 59.148438 32.273438 C 59.082031 32.613281 58.984375 32.941406 58.851562 33.257812 C 58.71875 33.578125 58.558594 33.878906 58.363281 34.167969 C 58.171875 34.453125 57.957031 34.71875 57.710938 34.960938 L 35.4375 57.234375 C 35.195312 57.480469 34.929688 57.699219 34.644531 57.890625 C 34.355469 58.082031 34.054688 58.242188 33.734375 58.375 C 33.417969 58.507812 33.089844 58.605469 32.75 58.671875 C 32.414062 58.742188 32.070312 58.773438 31.726562 58.773438 C 31.382812 58.773438 31.039062 58.742188 30.703125 58.675781 C 30.363281 58.605469 30.035156 58.507812 29.71875 58.375 C 29.398438 58.242188 29.097656 58.082031 28.8125 57.890625 C 28.523438 57.699219 28.261719 57.480469 28.015625 57.238281 C 27.773438 56.996094 27.554688 56.730469 27.363281 56.445312 C 27.171875 56.15625 27.011719 55.855469 26.878906 55.535156 C 26.746094 55.21875 26.648438 54.890625 26.582031 54.550781 C 26.515625 54.214844 26.480469 53.871094 26.480469 53.527344 C 26.480469 53.183594 26.515625 52.84375 26.582031 52.503906 C 26.648438 52.167969 26.75 51.839844 26.878906 51.519531 C 27.011719 51.203125 27.175781 50.898438 27.367188 50.613281 C 27.558594 50.324219 27.773438 50.058594 28.019531 49.816406 L 50.292969 27.542969 C 50.535156 27.300781 50.800781 27.082031 51.089844 26.890625 C 51.375 26.699219 51.675781 26.535156 51.996094 26.40625 C 52.3125 26.273438 52.640625 26.171875 52.980469 26.105469 C 53.316406 26.039062 53.660156 26.003906 54.003906 26.003906 C 54.347656 26.003906 54.691406 26.039062 55.027344 26.105469 C 55.367188 26.171875 55.695312 26.269531 56.011719 26.402344 C 56.332031 26.535156 56.632812 26.695312 56.917969 26.886719 C 57.207031 27.078125 57.472656 27.296875 57.714844 27.539062 Z M 57.714844 27.539062 " />
        <path
            style="fill:none;stroke-width:1;stroke-linecap:round;stroke-linejoin:miter;stroke:white;stroke-opacity:1;stroke-miterlimit:4;"
            d="M 0.499954 0.000109888 L 13.375095 0.000052025 "
            transform="matrix(0.185024,10.485323,-10.498365,0.185254,187.506307,186.492175)" />
        <path style=" stroke:none;fill-rule:nonzero;fill:white;fill-opacity:1;"
            d="M 211.070312 331.609375 C 211.078125 331.953125 211.046875 332.292969 210.988281 332.632812 C 210.925781 332.972656 210.832031 333.300781 210.707031 333.621094 C 210.578125 333.941406 210.421875 334.246094 210.238281 334.535156 C 210.050781 334.824219 209.835938 335.09375 209.597656 335.34375 C 209.359375 335.589844 209.097656 335.8125 208.8125 336.007812 C 208.53125 336.203125 208.230469 336.371094 207.914062 336.507812 C 207.597656 336.644531 207.273438 336.75 206.9375 336.824219 C 206.597656 336.898438 206.257812 336.9375 205.914062 336.941406 L 174.417969 337.5 C 174.074219 337.503906 173.730469 337.476562 173.394531 337.417969 C 173.054688 337.355469 172.722656 337.261719 172.402344 337.136719 C 172.082031 337.007812 171.777344 336.851562 171.488281 336.667969 C 171.195312 336.480469 170.925781 336.269531 170.679688 336.027344 C 170.433594 335.789062 170.210938 335.527344 170.011719 335.246094 C 169.816406 334.964844 169.648438 334.664062 169.511719 334.347656 C 169.375 334.03125 169.269531 333.707031 169.195312 333.371094 C 169.121094 333.035156 169.082031 332.691406 169.078125 332.347656 C 169.070312 332.003906 169.097656 331.664062 169.160156 331.324219 C 169.222656 330.984375 169.316406 330.65625 169.441406 330.335938 C 169.566406 330.015625 169.722656 329.710938 169.910156 329.421875 C 170.097656 329.132812 170.308594 328.863281 170.550781 328.613281 C 170.789062 328.367188 171.050781 328.144531 171.332031 327.949219 C 171.617188 327.753906 171.914062 327.585938 172.230469 327.449219 C 172.546875 327.3125 172.875 327.207031 173.210938 327.132812 C 173.546875 327.058594 173.890625 327.019531 174.234375 327.011719 L 205.730469 326.457031 C 206.074219 326.453125 206.414062 326.480469 206.753906 326.539062 C 207.09375 326.601562 207.421875 326.695312 207.746094 326.820312 C 208.066406 326.949219 208.371094 327.105469 208.660156 327.289062 C 208.949219 327.476562 209.21875 327.6875 209.46875 327.929688 C 209.714844 328.167969 209.9375 328.429688 210.132812 328.710938 C 210.332031 328.992188 210.496094 329.292969 210.636719 329.609375 C 210.773438 329.925781 210.878906 330.25 210.953125 330.585938 C 211.023438 330.921875 211.0625 331.261719 211.070312 331.609375 Z M 211.070312 331.609375 " />
        <path
            style="fill:none;stroke-width:1;stroke-linecap:round;stroke-linejoin:miter;stroke:white;stroke-opacity:1;stroke-miterlimit:4;"
            d="M 0.500167 0.000112738 L 13.659284 0.000112738 "
            transform="matrix(10.488807,0,0,10.499999,185.632756,186.491004)" />
        <path style=" stroke:none;fill-rule:nonzero;fill:white;fill-opacity:1;"
            d="M 334.148438 165.492188 C 334.492188 165.492188 334.832031 165.523438 335.167969 165.59375 C 335.507812 165.660156 335.835938 165.757812 336.152344 165.890625 C 336.472656 166.023438 336.773438 166.183594 337.058594 166.375 C 337.347656 166.566406 337.613281 166.785156 337.855469 167.027344 C 338.097656 167.273438 338.316406 167.539062 338.507812 167.824219 C 338.699219 168.109375 338.859375 168.414062 338.992188 168.730469 C 339.125 169.050781 339.222656 169.378906 339.289062 169.714844 C 339.359375 170.054688 339.390625 170.394531 339.390625 170.742188 L 339.390625 202.242188 C 339.390625 202.585938 339.359375 202.925781 339.289062 203.265625 C 339.222656 203.601562 339.125 203.929688 338.992188 204.25 C 338.859375 204.570312 338.699219 204.871094 338.507812 205.15625 C 338.316406 205.445312 338.097656 205.710938 337.855469 205.953125 C 337.613281 206.195312 337.347656 206.414062 337.058594 206.605469 C 336.773438 206.796875 336.472656 206.960938 336.152344 207.089844 C 335.835938 207.222656 335.507812 207.324219 335.167969 207.390625 C 334.832031 207.457031 334.492188 207.492188 334.148438 207.492188 C 333.800781 207.492188 333.460938 207.457031 333.125 207.390625 C 332.785156 207.324219 332.457031 207.222656 332.140625 207.089844 C 331.820312 206.960938 331.519531 206.796875 331.234375 206.605469 C 330.945312 206.414062 330.683594 206.195312 330.4375 205.953125 C 330.195312 205.710938 329.976562 205.445312 329.785156 205.15625 C 329.59375 204.871094 329.433594 204.570312 329.300781 204.25 C 329.167969 203.929688 329.070312 203.601562 329.003906 203.265625 C 328.9375 202.925781 328.902344 202.585938 328.902344 202.242188 L 328.902344 170.742188 C 328.902344 170.394531 328.9375 170.054688 329.003906 169.714844 C 329.070312 169.378906 329.167969 169.050781 329.300781 168.730469 C 329.433594 168.414062 329.59375 168.109375 329.785156 167.824219 C 329.976562 167.539062 330.195312 167.273438 330.4375 167.027344 C 330.683594 166.785156 330.945312 166.566406 331.234375 166.375 C 331.519531 166.183594 331.820312 166.023438 332.140625 165.890625 C 332.457031 165.757812 332.785156 165.660156 333.125 165.59375 C 333.460938 165.523438 333.800781 165.492188 334.148438 165.492188 Z M 334.148438 165.492188 " />
    </g>
</svg>